<svg viewBox="0 40 800 400" xmlns="http://www.w3.org/2000/svg">
    <rect x="50" y="80" width="100" height="60" rx="8" fill="#3b82f6" stroke="#2563eb" stroke-width="2"></rect>
  <text x="100" y="115" text-anchor="middle" font-family="Arial, sans-serif" font-size="14" font-weight="bold" fill="white" style="white-space: pre;">Request</text>
  <defs>
    <marker id="arrowhead" markerWidth="10" markerHeight="7" refX="10" refY="3.5" orient="auto">
      <polygon points="0 0, 10 3.5, 0 7" fill="#374151"></polygon>
    </marker>
    <marker id="failarrow" markerWidth="10" markerHeight="7" refX="10" refY="3.5" orient="auto">
      <polygon points="0 0, 10 3.5, 0 7" fill="#ef4444"></polygon>
    </marker>
    <marker id="retryarrow" markerWidth="10" markerHeight="7" refX="10" refY="3.5" orient="auto">
      <polygon points="0 0, 10 3.5, 0 7" fill="#22c55e"></polygon>
    </marker>
  </defs>
  <rect x="200" y="80" width="80" height="60" rx="8" fill="#ef4444" stroke="#dc2626" stroke-width="2"></rect>
  <text x="240" y="115" text-anchor="middle" font-family="Arial, sans-serif" font-size="14" font-weight="bold" fill="white" style="white-space: pre;">Fail</text>
  <line x1="150" y1="110" x2="200" y2="110" stroke="#374151" stroke-width="2" marker-end="url(#arrowhead)"></line>
  <rect x="320" y="80" width="100" height="60" rx="8" fill="#f59e0b" stroke="#d97706" stroke-width="2"></rect>
  <text x="370" y="105" text-anchor="middle" font-family="Arial, sans-serif" font-size="12" font-weight="bold" fill="white" style="white-space: pre;">Wait</text>
  <text x="370" y="125" text-anchor="middle" font-family="Arial, sans-serif" font-size="12" font-weight="bold" fill="white" style="white-space: pre;">500ms</text>
  <line x1="280" y1="110" x2="320" y2="110" stroke="#ef4444" stroke-width="2" marker-end="url(#failarrow)"></line>
  <rect x="460" y="80" width="80" height="60" rx="8" fill="#22c55e" stroke="#16a34a" stroke-width="2"></rect>
  <text x="500" y="115" text-anchor="middle" font-family="Arial, sans-serif" font-size="14" font-weight="bold" fill="white" style="white-space: pre;">Retry</text>
  <line x1="420" y1="110" x2="460" y2="110" stroke="#22c55e" stroke-width="2" marker-end="url(#retryarrow)"></line>
  <line x1="370" y1="140" x2="370" y2="180" stroke="#374151" stroke-width="2"></line>
  <rect x="200" y="180" width="80" height="60" rx="8" fill="#ef4444" stroke="#dc2626" stroke-width="2"></rect>
  <text x="240" y="215" text-anchor="middle" font-family="Arial, sans-serif" font-size="14" font-weight="bold" fill="white" style="white-space: pre;">Fail</text>
  <line x1="370" y1="180" x2="280" y2="180" stroke="#374151" stroke-width="2" marker-end="url(#arrowhead)"></line>
  <rect x="320" y="180" width="100" height="60" rx="8" fill="#f59e0b" stroke="#d97706" stroke-width="2"></rect>
  <text x="370" y="205" text-anchor="middle" font-family="Arial, sans-serif" font-size="12" font-weight="bold" fill="white" style="white-space: pre;">Wait</text>
  <text x="370" y="225" text-anchor="middle" font-family="Arial, sans-serif" font-size="12" font-weight="bold" fill="white" style="white-space: pre;">1s</text>
  <line x1="280" y1="210" x2="320" y2="210" stroke="#ef4444" stroke-width="2" marker-end="url(#failarrow)"></line>
  <rect x="460" y="180" width="80" height="60" rx="8" fill="#22c55e" stroke="#16a34a" stroke-width="2"></rect>
  <text x="500" y="215" text-anchor="middle" font-family="Arial, sans-serif" font-size="14" font-weight="bold" fill="white" style="white-space: pre;">Retry</text>
  <line x1="420" y1="210" x2="460" y2="210" stroke="#22c55e" stroke-width="2" marker-end="url(#retryarrow)"></line>
  <line x1="370" y1="240" x2="370" y2="280" stroke="#374151" stroke-width="2"></line>
  <rect x="200" y="280" width="80" height="60" rx="8" fill="#ef4444" stroke="#dc2626" stroke-width="2"></rect>
  <text x="240" y="315" text-anchor="middle" font-family="Arial, sans-serif" font-size="14" font-weight="bold" fill="white" style="white-space: pre;">Fail</text>
  <line x1="370" y1="280" x2="280" y2="280" stroke="#374151" stroke-width="2" marker-end="url(#arrowhead)"></line>
  <rect x="320" y="280" width="100" height="60" rx="8" fill="#f59e0b" stroke="#d97706" stroke-width="2"></rect>
  <text x="370" y="305" text-anchor="middle" font-family="Arial, sans-serif" font-size="12" font-weight="bold" fill="white" style="white-space: pre;">Wait</text>
  <text x="370" y="325" text-anchor="middle" font-family="Arial, sans-serif" font-size="12" font-weight="bold" fill="white" style="white-space: pre;">2s</text>
  <line x1="280" y1="310" x2="320" y2="310" stroke="#ef4444" stroke-width="2" marker-end="url(#failarrow)"></line>
  <rect x="460" y="280" width="80" height="60" rx="8" fill="#22c55e" stroke="#16a34a" stroke-width="2"></rect>
  <text x="500" y="315" text-anchor="middle" font-family="Arial, sans-serif" font-size="14" font-weight="bold" fill="white" style="white-space: pre;">Retry</text>
  <line x1="420" y1="310" x2="460" y2="310" stroke="#22c55e" stroke-width="2" marker-end="url(#retryarrow)"></line>
  <circle cx="370" cy="370" r="3" fill="#374151"></circle>
  <circle cx="370" cy="385" r="3" fill="#374151"></circle>
  <circle cx="370" cy="400" r="3" fill="#374151"></circle>
  <line x1="370" y1="340" x2="370" y2="360" stroke="#374151" stroke-width="2"></line>
</svg>