<svg viewBox="0 40 700 350" xmlns="http://www.w3.org/2000/svg">
    <rect x="50" y="80" width="100" height="60" rx="8" fill="#3b82f6" stroke="#2563eb" stroke-width="2"></rect>
  <text x="100" y="105" text-anchor="middle" font-family="Arial, sans-serif" font-size="14" font-weight="bold" fill="white" style="white-space: pre;">Request</text>
  <text x="100" y="125" text-anchor="middle" font-family="Arial, sans-serif" font-size="12" fill="white" style="white-space: pre;">+ Key</text>
  <rect x="250" y="80" width="120" height="60" rx="8" fill="#ef4444" stroke="#dc2626" stroke-width="2"></rect>
  <text x="310" y="105" text-anchor="middle" font-family="Arial, sans-serif" font-size="14" font-weight="bold" fill="white" style="white-space: pre;">Redis:</text>
  <text x="310" y="125" text-anchor="middle" font-family="Arial, sans-serif" font-size="14" font-weight="bold" fill="white" style="white-space: pre;">Check Key</text>
  <defs>
    <marker id="arrowhead" markerWidth="10" markerHeight="7" refX="10" refY="3.5" orient="auto">
      <polygon points="0 0, 10 3.5, 0 7" fill="#374151"></polygon>
    </marker>
  </defs>
  <line x1="150" y1="110" x2="250" y2="110" stroke="#374151" stroke-width="2" marker-end="url(#arrowhead)"></line>
  <polygon points="310,180 350,210 310,240 270,210" fill="#f59e0b" stroke="#d97706" stroke-width="2"></polygon>
  <text x="310" y="215" text-anchor="middle" font-family="Arial, sans-serif" font-size="12" font-weight="bold" fill="white" style="white-space: pre;">Exists?</text>
  <line x1="310" y1="140" x2="310" y2="180" stroke="#374151" stroke-width="2" marker-end="url(#arrowhead)"></line>
  <line x1="350" y1="210" x2="450" y2="210" stroke="#22c55e" stroke-width="3" marker-end="url(#arrowhead)"></line>
  <text x="400" y="205" text-anchor="middle" font-family="Arial, sans-serif" font-size="12" font-weight="bold" fill="#22c55e" style="white-space: pre;">Yes</text>
  <rect x="450" y="180" width="100" height="60" rx="8" fill="#22c55e" stroke="#16a34a" stroke-width="2"></rect>
  <text x="500" y="205" text-anchor="middle" font-family="Arial, sans-serif" font-size="14" font-weight="bold" fill="white" style="white-space: pre;">Return</text>
  <text x="500" y="225" text-anchor="middle" font-family="Arial, sans-serif" font-size="14" font-weight="bold" fill="white" style="white-space: pre;">200</text>
  <line x1="310" y1="240" x2="310" y2="300" stroke="#ef4444" stroke-width="3" marker-end="url(#arrowhead)"></line>
  <text x="325" y="270" font-family="Arial, sans-serif" font-size="12" font-weight="bold" fill="#ef4444" style="white-space: pre;">No</text>
  <rect x="260" y="300" width="100" height="60" rx="8" fill="#8b5cf6" stroke="#7c3aed" stroke-width="2"></rect>
  <text x="310" y="335" text-anchor="middle" font-family="Arial, sans-serif" font-size="14" font-weight="bold" fill="white" style="white-space: pre;">Process</text>
  <line x1="360" y1="330" x2="450" y2="330" stroke="#374151" stroke-width="2" marker-end="url(#arrowhead)"></line>
  <rect x="450" y="300" width="100" height="60" rx="8" fill="#06b6d4" stroke="#0891b2" stroke-width="2"></rect>
  <text x="500" y="325" text-anchor="middle" font-family="Arial, sans-serif" font-size="14" font-weight="bold" fill="white" style="white-space: pre;">Store</text>
  <text x="500" y="345" text-anchor="middle" font-family="Arial, sans-serif" font-size="14" font-weight="bold" fill="white" style="white-space: pre;">Key</text>
  <line x1="100" y1="140" x2="100" y2="330" stroke="#374151" stroke-width="2"></line>
  <line x1="100" y1="330" x2="260" y2="330" stroke="#374151" stroke-width="2" marker-end="url(#arrowhead)"></line>
</svg>