<svg viewBox="20 0 600 450" xmlns="http://www.w3.org/2000/svg">
    
  <!-- Multiple Clients -->
  <rect x="30" y="80" width="100" height="50" rx="8" fill="#3b82f6" stroke="#2563eb" stroke-width="2"/>
  <text x="80" y="110" text-anchor="middle" font-family="Arial, sans-serif" font-size="12" font-weight="bold" fill="white">Client 1</text>
  
  <rect x="30" y="140" width="100" height="50" rx="8" fill="#3b82f6" stroke="#2563eb" stroke-width="2"/>
  <text x="80" y="170" text-anchor="middle" font-family="Arial, sans-serif" font-size="12" font-weight="bold" fill="white">Client 2</text>
  
  <rect x="30" y="200" width="100" height="50" rx="8" fill="#3b82f6" stroke="#2563eb" stroke-width="2"/>
  <text x="80" y="230" text-anchor="middle" font-family="Arial, sans-serif" font-size="12" font-weight="bold" fill="white">Client n</text>
  
  <!-- Consolidation line -->
  <line x1="130" y1="105" x2="180" y2="165" stroke="#374151" stroke-width="2"/>
  <line x1="130" y1="165" x2="180" y2="165" stroke="#374151" stroke-width="2"/>
  <line x1="130" y1="225" x2="180" y2="165" stroke="#374151" stroke-width="2"/>
  
  <!-- Arrow markers -->
  <defs>
    <marker id="arrowhead" markerWidth="10" markerHeight="7" refX="10" refY="3.5" orient="auto">
      <polygon points="0 0, 10 3.5, 0 7" fill="#374151"/>
    </marker>
    <marker id="errorarrow" markerWidth="10" markerHeight="7" refX="10" refY="3.5" orient="auto">
      <polygon points="0 0, 10 3.5, 0 7" fill="#ef4444"/>
    </marker>
    <marker id="retryarrow" markerWidth="10" markerHeight="7" refX="10" refY="3.5" orient="auto">
      <polygon points="0 0, 10 3.5, 0 7" fill="#22c55e"/>
    </marker>
  </defs>
  
  <!-- POST /pay -->
  <rect x="200" y="135" width="100" height="60" rx="8" fill="#10b981" stroke="#059669" stroke-width="2"/>
  <text x="250" y="165" text-anchor="middle" font-family="Arial, sans-serif" font-size="13" font-weight="bold" fill="white">POST /pay</text>
  <text x="250" y="185" text-anchor="middle" font-family="Arial, sans-serif" font-size="11" fill="white">+ Idem Key</text>
  
  <!-- Arrow to POST -->
  <line x1="180" y1="165" x2="200" y2="165" stroke="#374151" stroke-width="2" marker-end="url(#arrowhead)"/>
  
  <!-- 500 Error Check -->
  <polygon points="380,135 420,165 380,195 340,165" fill="#ef4444" stroke="#dc2626" stroke-width="2"/>
      
  <text x="380" y="155" text-anchor="middle" font-family="Arial, sans-serif" font-size="11" font-weight="bold" fill="white">500?</text>
  <text x="380" y="175" text-anchor="middle" font-family="Arial, sans-serif" font-size="11" font-weight="bold" fill="white">Error</text>
  
  <!-- Arrow to 500 check -->
  <line x1="300" y1="165" x2="340" y2="165" stroke="#374151" stroke-width="2" marker-end="url(#arrowhead)"/>
  
  <!-- Success Path -->
  <line x1="420" y1="165" x2="502" y2="165" stroke="#22c55e" stroke-width="2" marker-end="url(#arrowhead)"/>
  <text x="450" y="155" text-anchor="middle" font-family="Arial, sans-serif" font-size="11" font-weight="bold" fill="#22c55e">Success</text>
  
  <!-- Success Box -->
  <rect x="500" y="135" width="100" height="60" rx="8" fill="#22c55e" stroke="#16a34a" stroke-width="2"/>
  <text x="550" y="155" text-anchor="middle" font-family="Arial, sans-serif" font-size="13" font-weight="bold" fill="white">Payment</text>
  <text x="550" y="175" text-anchor="middle" font-family="Arial, sans-serif" font-size="13" font-weight="bold" fill="white">Complete</text>
  
  <!-- Backoff Path -->
  <line x1="380" y1="195" x2="380" y2="250" stroke="#ef4444" stroke-width="2" marker-end="url(#errorarrow)"/>
  <text x="390" y="225" font-family="Arial, sans-serif" font-size="11" font-weight="bold" fill="#ef4444">Yes</text>
  
  <!-- Backoff Box -->
  <rect x="330" y="250" width="100" height="60" rx="8" fill="#f59e0b" stroke="#d97706" stroke-width="2"/>
  <text x="380" y="275" text-anchor="middle" font-family="Arial, sans-serif" font-size="12" font-weight="bold" fill="white">Exponential</text>
  <text x="380" y="295" text-anchor="middle" font-family="Arial, sans-serif" font-size="12" font-weight="bold" fill="white">Backoff</text>
  
  <!-- Retry Counter -->
  <rect x="480" y="250" width="100" height="60" rx="8" fill="#8b5cf6" stroke="#7c3aed" stroke-width="2"/>
  <text x="530" y="275" text-anchor="middle" font-family="Arial, sans-serif" font-size="12" font-weight="bold" fill="white">Retry x5</text>
  <text x="530" y="295" text-anchor="middle" font-family="Arial, sans-serif" font-size="12" font-weight="bold" fill="white">Max</text>
  
  <!-- Arrow from Backoff to Retry Counter -->
  <line x1="430" y1="280" x2="480" y2="280" stroke="#374151" stroke-width="2" marker-end="url(#arrowhead)"/>
  
  <!-- Retry Loop -->
  <path d="M 580 280 L 620 280 L 620 100 L 250 100 L 250 135" 
        stroke="#22c55e" stroke-width="2" fill="none" marker-end="url(#retryarrow)"/>
		
  <text x="520" y="240" font-family="Arial, sans-serif" font-size="11" font-weight="bold" fill="#22c55e">Retry</text>
  
  <!-- Max Retries Exceeded -->
  <line x1="530" y1="310" x2="530" y2="360" stroke="#ef4444" stroke-width="2" marker-end="url(#errorarrow)"/>
  <text x="540" y="335" font-family="Arial, sans-serif" font-size="11" font-weight="bold" fill="#ef4444">Max Reached</text>
  
  <!-- Failure Box -->
  <rect x="480" y="360" width="100" height="60" rx="8" fill="#ef4444" stroke="#dc2626" stroke-width="2"/>
  <text x="530" y="380" text-anchor="middle" font-family="Arial, sans-serif" font-size="12" font-weight="bold" fill="white">Payment</text>
  <text x="530" y="400" text-anchor="middle" font-family="Arial, sans-serif" font-size="12" font-weight="bold" fill="white">Failed</text>
  
</svg>